<svg width="54" height="19" viewBox="0 0 54 19" fill="none" xmlns="http://www.w3.org/2000/svg">
<path d="M10.3769 0.0576172V7.43964H3.62312V0.0576172H0V18.0576H3.62312V10.8227H10.3769V18.0576H14V0.0576172H10.3769Z" fill="#0E0C0F"/>
<path d="M22.7748 5.05762C19.5995 5.05762 17.7938 6.89438 17.4623 9.0343H20.655C20.8469 8.38341 21.4576 7.76818 22.6265 7.76818C23.778 7.76818 24.6241 8.36557 24.6241 9.5247V10.1043H21.981C18.8755 10.1043 17 11.5665 17 14.1166C17 16.6132 18.8842 18.0576 21.2308 18.0576C22.801 18.0576 24.0745 17.4335 24.8247 16.4259V17.7723H28V9.64952C27.9913 6.61797 25.9064 5.05762 22.7748 5.05762ZM22.1642 15.3381C21.1086 15.3381 20.4282 14.8121 20.4282 13.9472C20.4282 13.0556 21.1784 12.5295 22.2339 12.5295H24.6328V13.0823C24.6328 14.5268 23.4814 15.3381 22.1642 15.3381Z" fill="#0E0C0F"/>
<path d="M38.3482 4.88777C36.5768 4.88777 35.3677 5.56616 34.6835 6.44355V0.0576172H31V17.7682H34.5335V16.33C35.1146 17.3069 36.3987 18.0576 38.2451 18.0576C41.4506 18.0576 44 15.6244 44 11.4817C44.0093 7.27571 41.46 4.88777 38.3482 4.88777ZM37.4672 15.0003C35.752 15.0003 34.6179 13.6616 34.6179 11.536V11.4365C34.6179 9.31993 35.752 7.9541 37.4672 7.9541C39.1824 7.9541 40.2977 9.34706 40.2977 11.4908C40.2977 13.6345 39.1824 15.0003 37.4672 15.0003Z" fill="#0E0C0F"/>
<path d="M53.1162 5.06691C51.6674 5.06691 50.2734 5.61516 49.4351 7.12052V5.11337H46V18.0576H49.5809V11.4972C49.5809 9.64804 50.7563 8.51437 52.9157 8.51437H54V5.05762L53.1162 5.06691Z" fill="#0E0C0F"/>
</svg>
