<svg width="144" height="31" viewBox="0 0 144 31" fill="none" xmlns="http://www.w3.org/2000/svg">
<path d="M7.15781 24.045C3.20466 24.045 0 20.8403 0 16.8872V4.04574C0 2.74009 1.05844 1.68164 2.3641 1.68164C3.66975 1.68164 4.72819 2.74008 4.72819 4.04574V15.353C4.72819 18.0005 6.87441 20.1467 9.5219 20.1467H12.3665C13.443 20.1467 14.3156 21.0194 14.3156 22.0959C14.3156 23.1723 13.4429 24.045 12.3665 24.045H7.15781Z" fill="url(#paint0_linear_1_1072)"/>
<path d="M12.9234 1.6818C16.8765 1.6818 20.0812 4.88646 20.0812 8.8396V21.6811C20.0812 22.9867 19.0227 24.0452 17.7171 24.0452C16.4114 24.0452 15.353 22.9867 15.353 21.6811V10.3738C15.353 7.72632 13.2068 5.5801 10.5593 5.5801H7.71471C6.63823 5.5801 5.76556 4.70744 5.76556 3.63095C5.76556 2.55446 6.63823 1.6818 7.71472 1.6818H12.9234Z" fill="url(#paint1_linear_1_1072)"/>
<path d="M25.4264 1.68164C26.732 1.68164 27.7904 2.74008 27.7904 4.04574V21.6809C27.7904 22.9866 26.732 24.045 25.4264 24.045C24.1207 24.045 23.0623 22.9866 23.0623 21.6809V4.04574C23.0623 2.74009 24.1207 1.68164 25.4264 1.68164Z" fill="url(#paint2_linear_1_1072)"/>
<circle cx="9.92954" cy="12.8926" r="2.24216" fill="#12F287"/>
<path d="M139.916 4.4543V0.700684H144V4.4543H139.916ZM139.916 23.4626V6.39117H144V23.4626H139.916Z" fill="#0E0C0F"/>
<path d="M138.054 6.39135V23.4628H134.3V21.3458C133.53 22.1866 132.664 22.8422 131.703 23.3127C130.752 23.7831 129.636 24.0183 128.355 24.0183C126.823 24.0183 125.442 23.653 124.211 22.9223C122.979 22.1816 121.973 21.1105 121.193 19.7092C120.422 18.3078 120.036 16.7113 120.036 14.9196C120.036 13.1879 120.412 11.6214 121.163 10.22C121.923 8.81869 122.969 7.73765 124.301 6.97691C125.642 6.20617 127.038 5.8208 128.49 5.8208C129.481 5.8208 130.361 5.97595 131.132 6.28625C131.903 6.59655 132.559 6.97191 133.099 7.41233C133.65 7.84275 134.03 8.22312 134.24 8.55343H134.3V6.39135H138.054ZM134.18 14.8895C134.18 13.298 133.7 12.0118 132.739 11.0308C131.788 10.0499 130.597 9.5594 129.165 9.5594C128.244 9.5594 127.394 9.79463 126.613 10.2651C125.842 10.7255 125.232 11.3962 124.781 12.277C124.341 13.1479 124.12 14.0587 124.12 15.0097C124.12 16.5011 124.611 17.7523 125.592 18.7633C126.583 19.7642 127.784 20.2647 129.195 20.2647C130.687 20.2647 131.888 19.7442 132.799 18.7032C133.72 17.6622 134.18 16.391 134.18 14.8895Z" fill="#0E0C0F"/>
<path d="M114.075 23.4628V19.3789H118.159V23.4628H114.075Z" fill="#0E0C0F"/>
<path d="M104.779 24.0183C103.578 24.0183 102.422 23.7881 101.311 23.3277C100.2 22.8672 99.244 22.2366 98.4432 21.4358C97.6424 20.6251 97.0168 19.7492 96.5664 18.8083C95.9758 17.5871 95.6805 16.2909 95.6805 14.9196C95.6805 13.338 96.0809 11.8316 96.8817 10.4002C97.6925 8.95882 98.8186 7.83774 100.26 7.03697C101.701 6.22619 103.208 5.8208 104.779 5.8208C106.361 5.8208 107.867 6.22119 109.299 7.02196C110.73 7.82273 111.841 8.9338 112.632 10.3552C113.423 11.7665 113.818 13.298 113.818 14.9496C113.818 16.1207 113.623 17.2218 113.232 18.2528C112.852 19.2738 112.327 20.1646 111.656 20.9254C110.995 21.6861 110.305 22.2767 109.584 22.6971C108.873 23.1175 108.103 23.4428 107.272 23.673C106.441 23.9032 105.61 24.0183 104.779 24.0183ZM104.779 20.2647C106.211 20.2647 107.392 19.7392 108.323 18.6882C109.264 17.6372 109.734 16.396 109.734 14.9646C109.734 14.0037 109.504 13.0978 109.043 12.247C108.583 11.3862 107.957 10.7255 107.167 10.2651C106.386 9.79463 105.595 9.5594 104.794 9.5594C104.004 9.5594 103.198 9.78962 102.377 10.2501C101.566 10.7105 100.926 11.3561 100.455 12.1869C99.9947 13.0177 99.7645 13.9386 99.7645 14.9496C99.7645 15.9406 99.9947 16.8514 100.455 17.6822C100.916 18.513 101.536 19.1536 102.317 19.6041C103.108 20.0445 103.928 20.2647 104.779 20.2647Z" fill="#0E0C0F"/>
<path d="M82.7518 23.4626V0.700684H86.8358V14.4239H86.8958L92.3461 6.39117H97.0456L90.9047 14.7542L97.8564 23.4626H92.6914L86.8958 15.4749H86.8358V23.4626H82.7518Z" fill="#0E0C0F"/>
<path d="M76.4145 6.39135H80.3783V20.3248C80.3783 23.708 79.3623 26.3206 77.3304 28.1623C75.6588 29.6638 73.6318 30.4145 71.2495 30.4145C69.698 30.4145 68.3067 30.1342 67.0755 29.5737C65.8543 29.0232 64.8534 28.3075 64.0726 27.4266C63.482 26.746 62.9515 25.8551 62.4811 24.754H67.1656C67.7361 25.3947 68.2967 25.8501 68.8472 26.1204C69.5679 26.4807 70.3737 26.6609 71.2645 26.6609C72.1053 26.6609 72.8661 26.4957 73.5467 26.1654C74.2374 25.8451 74.7929 25.4447 75.2133 24.9642C75.6438 24.4838 75.9641 23.9633 76.1743 23.4027C76.3945 22.8422 76.5346 22.1565 76.5947 21.3458L76.5346 21.2857C75.2033 23.1075 73.3716 24.0183 71.0393 24.0183C69.5479 24.0183 68.0965 23.6179 66.6851 22.8172C65.2838 22.0064 64.1877 20.8803 63.397 19.4389C62.6062 17.9975 62.2108 16.456 62.2108 14.8145C62.2108 13.4231 62.4561 12.1919 62.9465 11.1209C63.447 10.0499 64.0576 9.15902 64.7783 8.44833C65.499 7.72764 66.2897 7.15208 67.1506 6.72167C68.3617 6.12109 69.628 5.8208 70.9492 5.8208C72.0503 5.8208 73.0713 6.04101 74.0122 6.48144C74.9531 6.92186 75.7338 7.59251 76.3544 8.49338H76.4145V6.39135ZM76.2944 14.7544C76.2944 14.0838 76.1392 13.3831 75.8289 12.6524C75.5987 12.1119 75.2684 11.6114 74.838 11.1509C74.4176 10.6905 73.9021 10.3101 73.2915 10.0098C72.6909 9.70955 71.9902 9.5594 71.1895 9.5594C69.8382 9.5594 68.6821 10.0599 67.7211 11.0608C66.7702 12.0518 66.2948 13.308 66.2948 14.8295C66.2948 15.8405 66.525 16.7714 66.9854 17.6222C67.4459 18.463 68.0815 19.1136 68.8923 19.5741C69.703 20.0345 70.5338 20.2647 71.3847 20.2647C72.1053 20.2647 72.756 20.1196 73.3365 19.8293C73.9271 19.539 74.4376 19.1587 74.868 18.6882C75.3084 18.2177 75.6538 17.6472 75.904 16.9766C76.1643 16.2959 76.2944 15.5552 76.2944 14.7544Z" fill="#0E0C0F"/>
<path d="M61.2487 16.7662H48.0059C48.4163 17.9173 49.0269 18.7882 49.8377 19.3787C50.6585 19.9693 51.6494 20.2646 52.8106 20.2646C53.7214 20.2646 54.4822 20.0844 55.0928 19.7241C55.7033 19.3537 56.2188 18.8082 56.6392 18.0875H60.9484C60.6681 18.8682 60.3578 19.5189 60.0175 20.0394C59.487 20.8201 58.8464 21.5158 58.0957 22.1264C57.3549 22.737 56.5442 23.2024 55.6633 23.5227C54.7925 23.8531 53.7665 24.0182 52.5853 24.0182C49.7326 24.0182 47.4454 22.9572 45.7237 20.8351C44.3724 19.1535 43.6968 17.1766 43.6968 14.9044C43.6968 13.2228 44.0922 11.6663 44.8829 10.2349C45.6737 8.79354 46.7697 7.68247 48.1711 6.90172C49.5824 6.11096 51.1189 5.71558 52.7805 5.71558C54.3921 5.71558 55.8735 6.09594 57.2248 6.85668C58.5761 7.6074 59.6271 8.67343 60.3779 10.0548C61.1286 11.4261 61.5039 12.8975 61.5039 14.469C61.5039 15.2297 61.4189 15.9955 61.2487 16.7662ZM57.3149 13.463C57.0647 12.1718 56.5291 11.1858 55.7084 10.5052C54.8876 9.81453 53.8716 9.46919 52.6604 9.46919C51.7595 9.46919 50.9688 9.66939 50.2881 10.0698C49.6175 10.4601 49.0569 11.0057 48.6065 11.7063C48.3162 12.1668 48.076 12.7524 47.8858 13.463H57.3149Z" fill="#0E0C0F"/>
<path d="M38.26 23.4626V0.700684H42.3439V23.4626H38.26Z" fill="#0E0C0F"/>
<defs>
<linearGradient id="paint0_linear_1_1072" x1="7.15781" y1="24.045" x2="7.15781" y2="1.68164" gradientUnits="userSpaceOnUse">
<stop stop-color="#12F287"/>
<stop offset="1" stop-color="#8BF9C4"/>
</linearGradient>
<linearGradient id="paint1_linear_1_1072" x1="12.9234" y1="1.6818" x2="12.9234" y2="24.0452" gradientUnits="userSpaceOnUse">
<stop stop-color="#12F287"/>
<stop offset="1" stop-color="#8BF9C4"/>
</linearGradient>
<linearGradient id="paint2_linear_1_1072" x1="25.4264" y1="24.045" x2="25.4264" y2="1.68164" gradientUnits="userSpaceOnUse">
<stop stop-color="#12F287"/>
<stop offset="1" stop-color="#8BF9C4"/>
</linearGradient>
</defs>
</svg>
