<svg width="66" height="19" viewBox="0 0 66 19" fill="none" xmlns="http://www.w3.org/2000/svg">
<g clip-path="url(#clip0_1_687)">
<path d="M16.4626 0.0576172H0.00299072V16.5497L16.4626 0.0576172Z" fill="#0E0C0F"/>
<path d="M1.47235 18.0575H17.9262V1.56836L1.47235 18.0575Z" fill="#0E0C0F"/>
<path d="M27.4885 0.0807274H21.6658V18.0547H25.2614V11.3412H27.5663C31.7669 11.3412 34.1755 9.31905 34.1755 5.79763V5.69941C34.1726 2.12887 31.7352 0.0807274 27.4885 0.0807274ZM30.6577 5.79763C30.6577 7.66378 29.5629 8.64885 27.4885 8.64885H25.2614V2.9464H27.4885C29.6464 2.9464 30.6577 3.81303 30.6577 5.69652V5.79763ZM42.9311 7.14091H39.9981V2.9984H47.803V0.0807274H36.4285V18.0547H42.8648C46.9732 18.0547 49.3299 16.0615 49.3299 12.5863V12.4794C49.3299 9.04173 47.0597 7.14091 42.9311 7.14091ZM39.9895 9.83614H42.643C44.8067 9.83614 45.8554 10.7028 45.8554 12.462V12.5603C45.8554 14.3224 44.8182 15.2151 42.7668 15.2151H39.9981L39.9895 9.83614ZM58.2094 8.6633L65.6368 0.0576172H61.6898L55.1785 7.79955V0.0807274H51.583V18.0547H55.1785V10.099L61.7128 18.0547H65.997L58.2094 8.6633Z" fill="#0E0C0F"/>
</g>
<defs>
<clipPath id="clip0_1_687">
<rect width="66" height="18" fill="white" transform="translate(0 0.0576172)"/>
</clipPath>
</defs>
</svg>
