<svg width="31" height="30" viewBox="0 0 31 30" fill="none" xmlns="http://www.w3.org/2000/svg">
<g clip-path="url(#clip0_1_676)">
<path d="M16.9054 18.6892V16.5249H21.0767C21.0767 16.7302 21.0767 16.9167 21.0767 17.1032C21.0767 19.4339 21.0647 21.7632 21.0848 24.0926C21.0888 24.6172 21.1425 25.1579 21.2753 25.6638C21.6429 27.0646 22.8183 27.7409 24.2391 27.4229C25.7673 27.0807 26.9333 25.6866 26.9869 23.9919C27.0406 22.2745 26.9977 20.5543 26.995 18.8341C26.995 18.8046 26.9735 18.7764 26.94 18.6905H24.8308V16.5249H29.2745C29.2745 18.288 29.2651 20.0337 29.2772 21.7793C29.2893 23.5277 29.3202 25.2747 29.3443 27.07H31V29.1511H27.5867C27.4887 28.5379 27.3881 27.9099 27.2754 27.2015C27.1707 27.3343 27.0943 27.4189 27.0312 27.5128C25.9511 29.1524 24.3237 29.8354 22.4104 29.4517C20.536 29.076 19.2909 27.8214 18.9354 25.908C18.8455 25.4223 18.8106 24.9191 18.8052 24.424C18.7905 22.7052 18.7999 20.985 18.7999 19.2662V18.6892H16.9041H16.9054Z" fill="#0E0C0F"/>
<path d="M27.6525 5.46587V3.33243C26.6207 2.67093 25.5125 2.49114 24.3559 2.64812C21.8067 2.99296 20.4006 5.36658 20.6153 7.6342C20.7964 9.54356 21.7369 10.9578 23.6126 11.5495C25.3421 12.0956 26.8756 11.626 28.1637 10.354C28.2764 10.2426 28.3824 10.1245 28.5125 9.98769C29.0854 10.4251 29.6422 10.8491 30.2124 11.2839C29.1002 12.7437 27.6914 13.6145 25.915 13.8601C22.2454 14.3686 18.9462 11.9843 18.2914 8.3601C17.5709 4.37232 20.7132 0.587142 24.7692 0.557623C26.7576 0.542863 28.589 1.18289 29.7979 2.32341V5.46587H27.6525Z" fill="#0E0C0F"/>
<path d="M10.7564 10.1903C11.8217 7.10151 12.8857 4.01272 13.9604 0.895752H17.689V3.00235H15.6389C14.2918 6.6037 12.9555 10.1715 11.6164 13.7514H9.54082C8.26487 10.1943 6.98757 6.63591 5.69685 3.03992H3.4978V0.901119H7.46521C8.52381 3.98454 9.59047 7.09077 10.6558 10.197C10.6893 10.1943 10.7229 10.1916 10.7551 10.189L10.7564 10.1903Z" fill="#0E0C0F"/>
<path d="M14.1576 27.1264V29.1592H4.42493V27.1116H6.45492V18.5041H4.42493V16.529H8.35343C8.40307 17.3059 8.45271 18.0653 8.50101 18.8234C9.19467 17.9218 9.9742 17.1905 11.0221 16.7732C12.1249 16.3344 13.2721 16.5129 14.4447 16.474V20.3182H12.3343V18.4531C11.7198 18.4437 11.1831 18.5806 10.6947 18.8758C9.49387 19.603 8.81766 20.6912 8.75862 22.0773C8.69288 23.6485 8.74252 25.2251 8.7452 26.799C8.7452 26.8916 8.77204 26.9842 8.7935 27.1277H14.159L14.1576 27.1264Z" fill="#0E0C0F"/>
<path d="M2.16416 29.2156H0V27.0378H2.16416V29.2156Z" fill="#0E0C0F"/>
</g>
<defs>
<clipPath id="clip0_1_676">
<rect width="31" height="29" fill="white" transform="translate(0 0.557617)"/>
</clipPath>
</defs>
</svg>
